<svg width="493" height="161" xmlns="http://www.w3.org/2000/svg"><g fill="none" fill-rule="evenodd"><g fill="#FFF"><path d="M328.52 37.36c-27.017 0-40.97 19.323-40.97 43.16 0 23.837 13.61 43.162 40.97 43.162s40.968-19.325 40.968-43.163c0-23.836-13.954-43.16-40.969-43.16zm20.438 43.237c-.02 15.328-5.126 27.743-20.439 27.743-15.313 0-20.42-12.414-20.436-27.743v-.077c.016-15.327 5.124-27.741 20.437-27.741 15.312 0 20.419 12.414 20.438 27.741v.077zM207.553 5.19c0-1.103.885-2.124 1.984-2.282 0 0 13.577-1.95 14.784-2.115 1.366-.187 3.181.798 3.181 2.744v44.236c3.23-3.105 6.785-5.608 10.66-7.515 3.88-1.906 8.428-2.86 13.653-2.86 4.524 0 8.532.776 12.032 2.33 3.502 1.55 6.423 3.73 8.765 6.533 2.342 2.806 4.12 6.155 5.332 10.05 1.21 3.893 1.817 8.182 1.817 12.866v51.352a1.998 1.998 0 0 1-2.005 1.994h-15.942a2.006 2.006 0 0 1-2.004-1.994V69.177c0-5.118-1.171-9.081-3.513-11.888-2.344-2.803-5.857-4.206-10.543-4.206-3.446 0-6.675.79-9.69 2.37-3.016 1.58-5.87 3.73-8.562 6.455v58.617c0 1.104-.896 2-2.004 2h-15.941a2 2 0 0 1-2.004-1.997V5.189zM451.56 100.517V56.836h-13.482c-1.1 0-1.742-.87-1.443-1.915 0 0 2.741-9.59 3.001-10.495.261-.905.941-1.877 2.307-2.07l9.597-1.353 3.508-23.488c.163-1.092 1.18-2.104 2.274-2.26 0 0 9.192-1.31 10.963-1.578 1.673-.253 3.189.965 3.189 2.808v24.518h17.566c1.106 0 2.002.897 2.002 2.005v11.823a2 2 0 0 1-2.002 2.005h-17.566v43.078c0 6.019 3.623 8.319 7.095 8.319 2.123 0 5.03-1.14 7.198-2.158 1.34-.626 3.417-.162 3.954 1.73l2.45 8.645c.302 1.067-.247 2.364-1.226 2.86 0 0-7.283 4.364-17.053 4.364-13.728 0-22.332-8.081-22.332-23.157zM406.976 52.778c-7.084 0-12.657 2.475-12.657 8.432 0 7.44 12.011 9.606 20.234 12.64 5.497 2.027 20.238 5.98 20.238 22.016 0 19.479-15.994 27.807-33.055 27.807-17.062 0-25.4-5.465-25.4-5.465-.962-.527-1.5-1.822-1.2-2.889 0 0 2.104-7.52 2.64-9.387.485-1.68 2.415-2.27 3.645-1.792 4.391 1.712 12.32 4.092 21.283 4.092 9.075 0 13.465-2.803 13.465-8.777 0-7.951-12.254-10.381-20.358-12.967-5.583-1.78-20.36-5.93-20.36-23.566 0-17.373 15.082-25.524 31.202-25.524 13.645 0 23.507 4.691 23.507 4.691 1.01.426 1.585 1.634 1.284 2.697 0 0-2.24 7.894-2.653 9.357-.489 1.739-1.899 2.537-3.667 1.957-3.888-1.277-11.197-3.322-18.148-3.322zM196.663 37.495c-6.695.776-11.472 3.963-14.562 6.93-6.068-4.81-14.49-7.105-23.944-7.105-18.953 0-33.76 9.252-33.76 29.426 0 11.582 4.873 19.562 12.614 24.26-5.749 2.752-9.577 8.592-9.577 14.333 0 9.604 7.501 12.612 7.501 12.612s-13.116 6.439-13.116 19.32c0 16.492 15.004 23.16 33.338 23.16 26.428 0 44.61-11.041 44.61-31.313 0-12.477-9.439-19.364-30.009-20.183-12.207-.488-20.114-.932-22.073-1.588-2.588-.87-3.86-2.965-3.86-5.28 0-2.554 2.074-4.986 5.345-6.656 2.853.51 5.863.763 8.99.763 18.968 0 33.761-9.225 33.761-29.427 0-4.898-.874-9.15-2.464-12.784 2.787-1.504 8.334-2.246 8.334-2.246 1.091-.174 1.976-1.213 1.975-2.31l-.001-9.132c0-1.88-1.588-2.955-3.102-2.78zm-49.13 85.133s9.954.381 19.9.847c11.172.523 14.654 2.958 14.654 8.81 0 7.15-9.71 14.104-23.28 14.104-12.88 0-19.314-4.533-19.314-12.08 0-4.33 2.26-9.173 8.04-11.68zm10.66-40.536c-8.978 0-15.983-4.824-15.983-15.346 0-10.523 7.011-15.346 15.983-15.346 8.974 0 15.984 4.81 15.984 15.346 0 10.536-7.002 15.346-15.984 15.346z"/></g><g opacity=".7" transform="translate(0 36)" fill="#F6F8FA"><path d="M.21 73.017c0-2.209 1.784-4 3.99-4h25.66a3.994 3.994 0 0 1 3.992 4v9.015c0 2.21-1.785 4-3.991 4H4.2a3.994 3.994 0 0 1-3.992-4v-9.015zM50.672 73.017c0-2.209 1.784-4 4.006-4h25.61a4.001 4.001 0 0 1 4.006 4v9.015c0 2.21-1.784 4-4.006 4h-25.61a4.001 4.001 0 0 1-4.006-4v-9.015z"/><rect x=".184" y="34.99" width="84.121" height="17.014" rx="4"/><path d="M.21 4.963c0-2.208 1.795-4 4.001-4h42.465a4 4 0 0 1 4.002 4v9.015c0 2.209-1.796 4-4.002 4H4.211a4 4 0 0 1-4.002-4V4.963z"/><rect x="67.494" y=".964" width="16.821" height="17.013" rx="4"/></g></g></svg>