<svg width="26" height="26" viewBox="0 0 26 26" xmlns="http://www.w3.org/2000/svg"><title>Group 8</title><g fill="none" fill-rule="evenodd"><path stroke-opacity=".012" stroke="#000" stroke-width="0" d="M1 1h24v24H1z"/><g stroke="#738A94" stroke-linecap="round" stroke-linejoin="round" stroke-width="1.2"><path d="M24.5 13c0 3.176-1.123 5.886-3.368 8.132C18.886 23.377 16.176 24.5 13 24.5c-3.176 0-5.886-1.123-8.132-3.368C2.623 18.886 1.5 16.176 1.5 13c0-3.176 1.123-5.886 3.368-8.132C7.114 2.623 9.824 1.5 13 1.5c3.176 0 5.886 1.123 8.132 3.368C23.377 7.114 24.5 9.824 24.5 13z"/><path d="M17.25 9.75c0 1.174-.415 2.175-1.245 3.005C15.175 13.585 14.174 14 13 14s-2.175-.415-3.005-1.245c-.83-.83-1.245-1.831-1.245-3.005s.415-2.175 1.245-3.005C10.825 5.915 11.826 5.5 13 5.5s2.175.415 3.005 1.245c.83.83 1.245 1.831 1.245 3.005zM19.317 19.5c-1.261-2.667-3.367-4-6.317-4s-5.056 1.333-6.317 4"/></g></g></svg>