<svg width="121" height="122" viewBox="0 0 121 122" xmlns="http://www.w3.org/2000/svg"><title>rss</title><path d="M31.884 106.361c0 8.577-6.975 15.552-15.555 15.552S.775 114.938.775 106.36c0-8.58 6.975-15.554 15.554-15.554 8.58 0 15.555 6.978 15.555 15.554zm88.888 15.555c.236-35.773-16.305-71.217-44.02-93.84C55.638 10.45 28.3.459.775.552v27.764c32.569-.377 64.667 17.343 81.395 45.341 8.851 14.526 13.547 31.202 13.575 48.212h25.027v.048zm-42.415 0c.139-23-10.794-45.623-28.657-60.046C36.032 50.654 18.453 44.337.778 44.433V67.81c19.229-.235 38.083 10.794 47.272 27.712 4.478 8.094 6.83 17.192 6.836 26.442h23.47v-.048z" fill="#FFF" fill-rule="nonzero"/></svg>