<svg xmlns="http://www.w3.org/2000/svg" width="614.363" height="614.363"><path fill="#fff" d="M93.299 613.7c-50.798 0-92.117-41.348-92.117-92.117 0-50.827 41.319-92.174 92.117-92.174s92.117 41.376 92.117 92.174c.028 50.77-41.319 92.117-92.117 92.117zm0-155.507c-34.894 0-63.304 28.439-63.304 63.39 0 34.922 28.41 63.304 63.304 63.304 34.893 0 63.303-28.382 63.303-63.304.029-34.95-28.381-63.39-63.303-63.39z"/><path fill="#fff" d="M400.537 614.306h-112.2c-7.952 0-14.407-6.454-14.407-14.407 0-69.585-26.883-134.905-75.664-183.945C149.514 366.998 84.654 340 15.704 340c-7.953 0-14.407-6.454-14.407-14.406V213.336c0-7.953 6.454-14.407 14.407-14.407 220.165 0 399.27 179.883 399.27 400.969-.03 7.982-6.455 14.408-14.437 14.408zm-98.139-28.814h83.473c-7.376-193.743-162.912-349.999-355.79-357.461v83.531c71.285 3.486 137.787 33.021 188.585 84.078 50.828 51.086 80.246 118.048 83.732 189.852z"/><path fill="#fff" d="M598.775 614.363H486.604c-7.952 0-14.406-6.454-14.406-14.407 0-253.04-204.721-458.942-456.378-458.942-7.953 0-14.407-6.454-14.407-14.407v-112.2C1.412 6.455 7.866 0 15.819 0c329.397 0 597.363 269.147 597.363 599.956a14.375 14.375 0 0 1-14.407 14.407zm-97.966-28.813h83.387C576.675 282.085 332.307 36.593 30.226 28.987v83.444c256.124 7.549 463.12 215.64 470.583 473.119z"/></svg>
