<svg width="200" height="163" viewBox="0 0 200 163" xmlns="http://www.w3.org/2000/svg"><title>twitter</title><path d="M133.634.036V0h9.378l3.426.685c2.285.445 4.359 1.028 6.222 1.75 1.864.721 3.667 1.563 5.41 2.524 1.744.962 3.325 1.942 4.744 2.94 1.406.986 2.669 2.032 3.787 3.138 1.106 1.118 2.83 1.407 5.175.866 2.345-.541 4.87-1.293 7.575-2.255 2.705-.961 5.38-2.043 8.025-3.246 2.645-1.202 4.256-1.966 4.833-2.29.565-.337.866-.517.902-.541l.036-.054.18-.09.18-.09.181-.09.18-.091.036-.054.055-.036.054-.036.036-.054.18-.054.18-.037-.036.271-.054.27-.09.271-.09.27-.09.18-.09.181-.09.27c-.06.181-.12.421-.181.722-.06.3-.631 1.503-1.713 3.607s-2.435 4.238-4.058 6.402c-1.623 2.164-3.078 3.8-4.364 4.905-1.299 1.119-2.158 1.9-2.58 2.345-.42.457-.93.877-1.532 1.262l-.902.595-.18.09-.18.09-.036.055-.055.036-.054.036-.036.054-.18.09-.18.09-.036.055-.055.036-.054.036-.036.054-.036.054-.054.036-.054.036-.036.054h.902l5.05-1.082c3.366-.721 6.582-1.593 9.647-2.615l4.87-1.623.54-.18.271-.09.18-.09.18-.09.181-.091.18-.09.361-.054.361-.036v.36l-.09.036-.09.055-.036.054-.055.036-.054.036-.036.054-.036.054-.054.036-.054.036-.036.054-.036.054-.054.036-.09.18-.09.181-.055.036c-.024.036-.787 1.058-2.29 3.066-1.503 2.02-2.314 3.042-2.435 3.066-.12.036-.288.216-.505.54-.204.337-1.478 1.678-3.823 4.022-2.344 2.345-4.64 4.43-6.889 6.258-2.26 1.84-3.402 4.1-3.426 6.781-.036 2.67-.175 5.687-.415 9.053-.24 3.367-.691 7.004-1.353 10.911-.66 3.908-1.683 8.326-3.066 13.255-1.382 4.93-3.065 9.739-5.05 14.428-1.983 4.689-4.057 8.897-6.221 12.624-2.164 3.727-4.148 6.883-5.951 9.468-1.804 2.585-3.637 5.02-5.5 7.304-1.864 2.284-4.22 4.857-7.07 7.718-2.862 2.85-4.424 4.413-4.689 4.69-.276.264-1.455 1.25-3.535 2.957-2.068 1.719-4.292 3.438-6.673 5.158-2.368 1.707-4.544 3.132-6.528 4.274s-4.376 2.446-7.178 3.913c-2.789 1.479-5.807 2.85-9.053 4.112-3.246 1.262-6.672 2.435-10.28 3.517-3.606 1.082-7.093 1.923-10.46 2.524-3.365.602-7.183 1.113-11.45 1.533l-6.403.632v.09H57.169v-.09l-1.533-.09c-1.022-.06-1.864-.12-2.525-.181-.661-.06-3.156-.39-7.484-.992-4.329-.6-7.725-1.202-10.19-1.803-2.464-.601-6.131-1.744-11-3.427-4.87-1.683-9.036-3.384-12.498-5.103-3.45-1.708-5.615-2.79-6.493-3.247-.865-.445-1.84-.997-2.921-1.659l-1.623-.992-.036-.054-.054-.036-.055-.036-.036-.054-.18-.09-.18-.09-.036-.054-.054-.037-.055-.036-.036-.054-.036-.054-.054-.036H0v-.36l.18.036.18.054.812.09c.541.06 2.014.15 4.419.27 2.404.12 4.959.12 7.664 0s5.47-.39 8.296-.811c2.825-.421 6.162-1.142 10.009-2.164 3.847-1.022 7.382-2.237 10.604-3.643 3.21-1.419 5.495-2.477 6.853-3.174 1.347-.686 3.403-1.96 6.168-3.824l4.148-2.795.036-.054.054-.036.054-.036.036-.054.036-.054.054-.036.055-.036.035-.055.18-.054.181-.036.036-.18.054-.18.055-.036.035-.055-1.442-.09c-.962-.06-1.894-.12-2.796-.18-.901-.06-2.314-.33-4.238-.812-1.923-.48-3.997-1.202-6.221-2.164-2.225-.962-4.389-2.104-6.493-3.426-2.104-1.323-3.625-2.423-4.562-3.3-.926-.866-2.129-2.093-3.607-3.68-1.467-1.598-2.742-3.24-3.824-4.923-1.082-1.683-2.116-3.625-3.101-5.825l-1.497-3.282-.09-.27-.09-.271-.055-.18-.036-.18.27.035.271.054 1.984.27c1.323.181 3.397.241 6.222.181 2.825-.06 4.779-.18 5.86-.36 1.083-.18 1.744-.301 1.985-.361l.36-.09.451-.09.451-.09.036-.055.054-.036.055-.036.035-.054-.36-.09-.361-.09-.36-.09-.361-.09-.361-.091c-.24-.06-.661-.18-1.262-.36-.601-.181-2.225-.842-4.87-1.984-2.645-1.143-4.749-2.255-6.312-3.337-1.567-1.085-3.06-2.272-4.472-3.553-1.407-1.298-2.952-2.97-4.635-5.013-1.683-2.044-3.186-4.418-4.509-7.124-1.322-2.705-2.314-5.29-2.975-7.754-.659-2.45-1.093-4.956-1.298-7.485l-.325-3.787.18.036.18.054.18.09.181.09.18.091.18.09 2.796 1.263c1.864.841 4.178 1.563 6.943 2.164 2.766.6 4.419.931 4.96.992l.811.09h1.623l-.036-.054-.054-.036-.054-.037-.036-.054-.036-.054-.054-.036-.054-.036-.036-.054-.18-.09-.181-.09-.036-.054-.054-.036-.054-.037-.036-.054-.18-.09-.181-.09-.036-.054c-.036-.024-.553-.409-1.551-1.154-.986-.758-2.02-1.738-3.102-2.94-1.082-1.202-2.164-2.465-3.246-3.787-1.084-1.326-2.05-2.744-2.886-4.238-.841-1.503-1.73-3.415-2.669-5.735-.925-2.308-1.629-4.635-2.11-6.98-.48-2.344-.751-4.658-.811-6.942-.06-2.285 0-4.239.18-5.862.18-1.623.541-3.456 1.082-5.5s1.323-4.208 2.345-6.492l1.533-3.427.09-.27.09-.271.054-.036.036-.054.036-.054.054-.036.054.036.036.054.036.054.055.036.054.036.036.054.036.054.054.036.09.18.09.181.055.036.035.054 2.435 2.705c1.623 1.804 3.547 3.818 5.771 6.042 2.224 2.224 3.457 3.378 3.697 3.462.24.097.541.373.902.83.36.445 1.563 1.509 3.607 3.192 2.044 1.683 4.719 3.637 8.025 5.861 3.306 2.224 6.973 4.419 11 6.583 4.029 2.164 8.357 4.117 12.985 5.86 4.63 1.744 7.875 2.886 9.739 3.427 1.864.541 5.05 1.233 9.558 2.074 4.509.842 7.905 1.383 10.19 1.623 2.284.24 3.847.38 4.688.415l1.263.036-.036-.27-.054-.27-.361-2.255c-.24-1.503-.36-3.607-.36-6.312s.21-5.2.63-7.484c.421-2.285 1.053-4.599 1.894-6.943.842-2.345 1.665-4.227 2.47-5.645.818-1.407 1.888-3.012 3.21-4.815 1.323-1.804 3.037-3.667 5.14-5.591 2.105-1.924 4.51-3.637 7.214-5.14 2.705-1.503 5.2-2.645 7.484-3.426 2.285-.782 4.209-1.293 5.771-1.533 1.563-.24 2.345-.379 2.345-.415z" fill="#FFF" fill-rule="evenodd"/></svg>