<svg xmlns="http://www.w3.org/2000/svg" width="612.001" height="612.002"><path fill="#fff" d="M197.553 557.219c-68.018 0-134.159-19.371-191.294-56.047-5.333-3.428-7.591-10.066-5.469-16.051 2.122-5.986 8.189-9.795 14.42-8.896 47.912 5.576 97.919-4.164 139.873-28.16-41.491-12.461-75.228-44.594-88.859-87.199a13.57 13.57 0 0 1 2.802-13.195 13.736 13.736 0 0 1 7.346-4.244c-32.404-24.678-52.864-63.639-52.864-106.436 0-4.816 2.558-10.012 6.72-12.461 4.163-2.449 9.305-3.21 13.495-.925a67.034 67.034 0 0 0 3.646 1.932c-14.719-21.739-22.881-47.749-22.881-74.902 0-23.562 6.23-46.796 18.093-67.147 2.231-3.863 6.23-6.366 10.692-6.72a13.734 13.734 0 0 1 11.59 4.952c55.04 67.501 134.703 110.298 220.624 119.086a135.305 135.305 0 0 1-.571-12.434c0-73.65 59.937-133.588 133.587-133.588 34.199 0 67.311 13.25 92.015 36.648 22.719-5.197 44.484-13.93 64.808-25.983a13.737 13.737 0 0 1 15.399 1.061c4.408 3.537 6.204 9.414 4.489 14.801a132.455 132.455 0 0 1-18.99 37.519 214.647 214.647 0 0 0 16.678-6.584c5.469-2.503 12.025-.979 15.916 3.7 3.891 4.625 4.245 11.291.898 16.324-15.808 23.562-35.07 44.103-57.299 61.162.082 2.938.109 5.904.109 8.842.001 174.453-132.798 354.945-354.973 354.945zm-128.69-53.543c40.458 17.33 84.125 26.336 128.69 26.336 205.17 0 327.766-166.645 327.766-327.765 0-4.979-.136-9.985-.326-14.964a13.59 13.59 0 0 1 5.632-11.59 228.226 228.226 0 0 0 27.507-23.371 255.254 255.254 0 0 1-26.99 4.707c-6.312.898-12.406-2.993-14.501-9.087-2.068-6.067.381-12.76 5.877-16.08a107.521 107.521 0 0 0 28.051-24.296c-13.577 5.197-27.562 9.25-41.845 12.025-4.571.953-9.333-.571-12.543-4.026-20.024-21.331-48.348-33.574-77.677-33.574-58.659 0-106.38 47.721-106.38 106.38 0 8.135.925 16.324 2.774 24.269a13.662 13.662 0 0 1-2.829 11.808c-2.721 3.265-6.829 5.523-11.101 4.843-92.858-4.68-180.33-45.953-243.179-114.189a106.518 106.518 0 0 0-6.094 35.533c0 35.696 17.685 68.753 47.286 88.533a13.578 13.578 0 0 1 5.414 15.454c-1.85 5.768-7.591 9.25-13.358 9.468a133.043 133.043 0 0 1-38.172-6.856c8.407 42.144 40.811 75.555 83.146 84.07 6.203 1.252 10.719 6.557 10.91 12.869.218 6.285-3.917 11.916-9.985 13.604-11.726 3.184-24.051 4.979-36.104 4.734 18.229 32.24 52.456 53.217 90.655 53.979 5.741.109 10.801 3.863 12.624 9.305s0 11.482-4.517 15.02c-38.226 29.953-83.01 47.964-130.731 52.861z"/></svg>
